<?xml version="1.0" encoding="UTF-8"?>
<svg xmlns="http://www.w3.org/2000/svg" width="1200" height="700" viewBox="0 70 600 350" role="img" aria-labelledby="dwg-title dwg-desc"><title id="dwg-title">BeispielClamp 200 – Vorderansicht BC-200-S-125</title><desc id="dwg-desc">Technische Zeichnung des Spannmoduls BeispielClamp 200 in der Baugröße 125 mit Grundkörper, zwei zentrisch spannenden Backen, Druckluftanschluss und Sensoraufnahme. Gesamtlänge 240 mm, Gesamthöhe 88 mm, Lochabstand 200 mm.</desc><defs><pattern id="dwg-grid" width="20" height="20" patternUnits="userSpaceOnUse"><path d="M20 0H0V20" fill="none" stroke="#e6ebf0" stroke-width="0.6"/></pattern><marker id="dwg-arrow" viewBox="0 0 10 10" refX="10" refY="5" markerWidth="7" markerHeight="7" orient="auto-start-reverse"><path d="M0 1.5L10 5L0 8.5z" fill="#4d5d6d"/></marker></defs><rect y="70" width="600" height="350" fill="#ffffff"/><rect x="10" y="78" width="580" height="334" fill="url(#dwg-grid)" stroke="#d6dee6"/><rect x="238" y="140" width="124" height="75" fill="none" stroke="#b8662a" stroke-width="1.2" stroke-dasharray="12 3 2 3 2 3"/><path d="M126 215h348l6 6v81H120v-81z" fill="#e9eef3" stroke="#132f4c" stroke-width="1.8"/><path d="M120 238h360" stroke="#132f4c" stroke-width="0.8"/><rect x="160" y="203" width="280" height="12" fill="#d6dee6" stroke="#132f4c" stroke-width="1.4"/><path d="M170 170h68v45h-68z" fill="#ffffff" stroke="#132f4c" stroke-width="1.8"/><path d="M362 170h68v45h-68z" fill="#ffffff" stroke="#132f4c" stroke-width="1.8"/><path d="M226 170v45M374 170v45" stroke="#132f4c" stroke-width="0.8"/><rect x="180" y="176" width="10" height="7" fill="none" stroke="#4d5d6d" stroke-width="0.8"/><rect x="208" y="176" width="10" height="7" fill="none" stroke="#4d5d6d" stroke-width="0.8"/><rect x="392" y="176" width="10" height="7" fill="none" stroke="#4d5d6d" stroke-width="0.8"/><rect x="420" y="176" width="10" height="7" fill="none" stroke="#4d5d6d" stroke-width="0.8"/><rect x="250" y="248" width="100" height="40" fill="none" stroke="#4d5d6d" stroke-width="0.9" stroke-dasharray="5 3"/><path d="M250 256l-40-41M350 256l40-41M300 248v-33" fill="none" stroke="#4d5d6d" stroke-width="0.9" stroke-dasharray="5 3"/><path d="M143 215v87M157 215v87M443 215v87M457 215v87M139 215v10h22v-10M439 215v10h22v-10" fill="none" stroke="#4d5d6d" stroke-width="0.9" stroke-dasharray="5 3"/><path d="M184 302v-16h12v16M404 302v-16h12v16" fill="none" stroke="#4d5d6d" stroke-width="0.9" stroke-dasharray="5 3"/><path d="M300 125v195" stroke="#4d5d6d" stroke-width="0.7" stroke-dasharray="16 3 2 3"/><path d="M150 205v150M450 205v150" stroke="#4d5d6d" stroke-width="0.7" stroke-dasharray="16 3 2 3"/><circle cx="300" cy="268" r="6" fill="#ffffff" stroke="#132f4c" stroke-width="1.4"/><path d="M300 259a9 9 0 1 1 -8.5 6" fill="none" stroke="#132f4c" stroke-width="0.8"/><rect x="200" y="262" width="34" height="10" rx="5" fill="#ffffff" stroke="#132f4c" stroke-width="1.2"/><rect x="366" y="262" width="34" height="10" rx="5" fill="#ffffff" stroke="#132f4c" stroke-width="1.2"/><path d="M244 158h14M356 158h-14" stroke="#b8662a" stroke-width="1.2" marker-end="url(#dwg-arrow)"/><path d="M120 306v44M480 306v44" stroke="#4d5d6d" stroke-width="0.8"/><path d="M121 340h358" stroke="#4d5d6d" stroke-width="0.8" marker-start="url(#dwg-arrow)" marker-end="url(#dwg-arrow)"/><text x="210" y="334" text-anchor="middle" font-size="15" fill="#132f4c" font-family="Barlow Semi Condensed, Barlow, Arial Narrow, Arial, sans-serif">240</text><path d="M151 374h298" stroke="#4d5d6d" stroke-width="0.8" marker-start="url(#dwg-arrow)" marker-end="url(#dwg-arrow)"/><text x="360" y="368" text-anchor="middle" font-size="15" fill="#132f4c" font-family="Barlow Semi Condensed, Barlow, Arial Narrow, Arial, sans-serif">200</text><path d="M434 170h86M484 302h36" stroke="#4d5d6d" stroke-width="0.8"/><path d="M512 171v130" stroke="#4d5d6d" stroke-width="0.8" marker-start="url(#dwg-arrow)" marker-end="url(#dwg-arrow)"/><text x="504" y="240" text-anchor="middle" font-size="15" fill="#132f4c" font-family="Barlow Semi Condensed, Barlow, Arial Narrow, Arial, sans-serif" transform="rotate(-90 504 240)">88</text><path d="M116 215H72M116 302H72" stroke="#4d5d6d" stroke-width="0.8"/><path d="M80 216v85" stroke="#4d5d6d" stroke-width="0.8" marker-start="url(#dwg-arrow)" marker-end="url(#dwg-arrow)"/><text x="72" y="260" text-anchor="middle" font-size="15" fill="#132f4c" font-family="Barlow Semi Condensed, Barlow, Arial Narrow, Arial, sans-serif" transform="rotate(-90 72 260)">58</text><text x="300" y="132" text-anchor="middle" font-size="12" fill="#b8662a" font-family="Barlow Semi Condensed, Barlow, Arial Narrow, Arial, sans-serif">Werkstück</text><text x="300" y="152" text-anchor="middle" font-size="11" fill="#b8662a" font-family="Barlow Semi Condensed, Barlow, Arial Narrow, Arial, sans-serif">Hub 2 × 6</text><path d="M128 232L100 172" stroke="#132f4c" stroke-width="0.8"/><circle cx="128" cy="232" r="1.8" fill="#132f4c"/><circle cx="100" cy="172" r="11" fill="#ffffff" stroke="#132f4c" stroke-width="1.2"/><text x="100" y="176.5" text-anchor="middle" font-size="13" font-weight="600" fill="#132f4c" font-family="Barlow Semi Condensed, Barlow, Arial Narrow, Arial, sans-serif">1</text><path d="M176 176L146 140" stroke="#132f4c" stroke-width="0.8"/><circle cx="176" cy="176" r="1.8" fill="#132f4c"/><circle cx="146" cy="140" r="11" fill="#ffffff" stroke="#132f4c" stroke-width="1.2"/><text x="146" y="144.5" text-anchor="middle" font-size="13" font-weight="600" fill="#132f4c" font-family="Barlow Semi Condensed, Barlow, Arial Narrow, Arial, sans-serif">2</text><path d="M300 275L300 322" stroke="#132f4c" stroke-width="0.8"/><circle cx="300" cy="275" r="1.8" fill="#132f4c"/><circle cx="300" cy="322" r="11" fill="#ffffff" stroke="#132f4c" stroke-width="1.2"/><text x="300" y="326.5" text-anchor="middle" font-size="13" font-weight="600" fill="#132f4c" font-family="Barlow Semi Condensed, Barlow, Arial Narrow, Arial, sans-serif">3</text><path d="M392 272L424 322" stroke="#132f4c" stroke-width="0.8"/><circle cx="392" cy="272" r="1.8" fill="#132f4c"/><circle cx="424" cy="322" r="11" fill="#ffffff" stroke="#132f4c" stroke-width="1.2"/><text x="424" y="326.5" text-anchor="middle" font-size="13" font-weight="600" fill="#132f4c" font-family="Barlow Semi Condensed, Barlow, Arial Narrow, Arial, sans-serif">4</text><text x="30" y="100" font-size="12" letter-spacing="1.2" fill="#4d5d6d" font-family="Barlow Semi Condensed, Barlow, Arial Narrow, Arial, sans-serif">VORDERANSICHT · BC-200-S-125 · MASSE IN MM</text><text x="30" y="398" font-size="11.5" fill="#4d5d6d" font-family="Barlow Semi Condensed, Barlow, Arial Narrow, Arial, sans-serif">1 Grundkörper  ·  2 Spannbacke  ·  3 Druckluftanschluss G 1/8  ·  4 Sensoraufnahme M8</text><text x="570" y="100" text-anchor="end" font-size="13" font-weight="700" letter-spacing="1" fill="#132f4c" font-family="Barlow Semi Condensed, Barlow, Arial Narrow, Arial, sans-serif">BEISPIELCLAMP 200</text></svg>
